<mxfile host="app.diagrams.net" agent="Mozilla/5.0 (Windows NT 10.0; Win64; x64) AppleWebKit/537.36 (KHTML, like Gecko) Chrome/137.0.0.0 Safari/537.36" version="27.1.6">
  <diagram name="Страница — 1" id="qSJT9I0rTTX1DH3kMrWp">
    <mxGraphModel dx="1242" dy="-572" grid="1" gridSize="10" guides="1" tooltips="1" connect="1" arrows="1" fold="1" page="1" pageScale="1" pageWidth="1654" pageHeight="1169" math="0" shadow="0">
      <root>
        <mxCell id="0" />
        <mxCell id="1" parent="0" />
        <mxCell id="p54MfCo67pkxVyZ0xUuG-26" value="" style="rounded=1;whiteSpace=wrap;html=1;dashed=1;dashPattern=8 8;arcSize=5;" parent="1" vertex="1">
          <mxGeometry x="513" y="1370" width="650" height="451" as="geometry" />
        </mxCell>
        <mxCell id="eYdm5l7QzkZv_fn5kE8N-41" value="" style="rounded=1;whiteSpace=wrap;html=1;strokeColor=#5f9eff;strokeWidth=3;" parent="1" vertex="1">
          <mxGeometry x="743" y="1425" width="180" height="360" as="geometry" />
        </mxCell>
        <mxCell id="EXCTl2cIy2LbLet_FyKj-3" value="" style="rounded=1;whiteSpace=wrap;html=1;" parent="1" vertex="1">
          <mxGeometry x="772.5" y="1661.5" width="114" height="21" as="geometry" />
        </mxCell>
        <mxCell id="eYdm5l7QzkZv_fn5kE8N-1" value="" style="rounded=1;whiteSpace=wrap;html=1;strokeColor=#88e0c0;strokeWidth=3;" parent="1" vertex="1">
          <mxGeometry x="320" y="1371" width="180" height="450" as="geometry" />
        </mxCell>
        <mxCell id="eYdm5l7QzkZv_fn5kE8N-3" value="" style="rounded=1;whiteSpace=wrap;html=1;dashed=1;" parent="1" vertex="1">
          <mxGeometry x="333" y="1451" width="150" height="330" as="geometry" />
        </mxCell>
        <mxCell id="eYdm5l7QzkZv_fn5kE8N-16" value="" style="rounded=1;whiteSpace=wrap;html=1;" parent="1" vertex="1">
          <mxGeometry x="353" y="1501" width="114" height="40" as="geometry" />
        </mxCell>
        <mxCell id="eYdm5l7QzkZv_fn5kE8N-22" value="&lt;span style=&quot;color: rgba(0, 0, 0, 0); font-family: monospace; font-size: 0px; text-align: start; text-wrap-mode: nowrap;&quot;&gt;%3CmxGraphModel%3E%3Croot%3E%3CmxCell%20id%3D%220%22%2F%3E%3CmxCell%20id%3D%221%22%20parent%3D%220%22%2F%3E%3CmxCell%20id%3D%222%22%20value%3D%22%26lt%3Bspan%20style%3D%26quot%3Bfont-size%3A%2020px%3B%26quot%3B%26gt%3B.csv%20%D1%84%D0%B0%D0%B9%D0%BB%26lt%3B%2Fspan%26gt%3B%22%20style%3D%22text%3BstrokeColor%3Dnone%3Balign%3Dcenter%3BfillColor%3Dnone%3Bhtml%3D1%3BverticalAlign%3Dmiddle%3BwhiteSpace%3Dwrap%3Brounded%3D0%3B%22%20vertex%3D%221%22%20parent%3D%221%22%3E%3CmxGeometry%20x%3D%22320%22%20y%3D%221548%22%20width%3D%22110%22%20height%3D%2230%22%20as%3D%22geometry%22%2F%3E%3C%2FmxCell%3E%3C%2Froot%3E%3C%2FmxGraphModel%3E&lt;/span&gt;" style="text;strokeColor=none;align=center;fillColor=none;html=1;verticalAlign=middle;whiteSpace=wrap;rounded=0;" parent="1" vertex="1">
          <mxGeometry x="383" y="1461" width="60" height="30" as="geometry" />
        </mxCell>
        <mxCell id="eYdm5l7QzkZv_fn5kE8N-23" value="sales" style="text;strokeColor=none;align=center;fillColor=none;html=1;verticalAlign=middle;whiteSpace=wrap;rounded=0;fontSize=11;" parent="1" vertex="1">
          <mxGeometry x="360" y="1507" width="100" height="30" as="geometry" />
        </mxCell>
        <mxCell id="eYdm5l7QzkZv_fn5kE8N-27" value="" style="rounded=1;whiteSpace=wrap;html=1;strokeColor=#88e0c0;strokeWidth=3;" parent="1" vertex="1">
          <mxGeometry x="543" y="1426" width="180" height="379" as="geometry" />
        </mxCell>
        <mxCell id="eYdm5l7QzkZv_fn5kE8N-28" value="" style="rounded=1;whiteSpace=wrap;html=1;" parent="1" vertex="1">
          <mxGeometry x="573" y="1525" width="114" height="40" as="geometry" />
        </mxCell>
        <mxCell id="eYdm5l7QzkZv_fn5kE8N-32" value="Primary&amp;nbsp;&lt;span style=&quot;background-color: initial;&quot;&gt;Data&lt;/span&gt;&lt;div&gt;Layer&lt;/div&gt;" style="text;strokeColor=none;fillColor=none;html=1;fontSize=19;fontStyle=1;verticalAlign=middle;align=center;" parent="1" vertex="1">
          <mxGeometry x="558" y="1463" width="150" height="40" as="geometry" />
        </mxCell>
        <mxCell id="eYdm5l7QzkZv_fn5kE8N-33" value="sales_raw_layer" style="text;strokeColor=none;align=center;fillColor=none;html=1;verticalAlign=middle;whiteSpace=wrap;rounded=0;fontSize=11;" parent="1" vertex="1">
          <mxGeometry x="580" y="1531" width="100" height="30" as="geometry" />
        </mxCell>
        <mxCell id="eYdm5l7QzkZv_fn5kE8N-40" value="" style="endArrow=classic;html=1;rounded=0;exitX=1;exitY=0.5;exitDx=0;exitDy=0;entryX=0;entryY=0.5;entryDx=0;entryDy=0;" parent="1" source="eYdm5l7QzkZv_fn5kE8N-16" target="eYdm5l7QzkZv_fn5kE8N-28" edge="1">
          <mxGeometry width="50" height="50" relative="1" as="geometry">
            <mxPoint x="523" y="1651" as="sourcePoint" />
            <mxPoint x="573" y="1601" as="targetPoint" />
          </mxGeometry>
        </mxCell>
        <mxCell id="eYdm5l7QzkZv_fn5kE8N-42" value="" style="rounded=1;whiteSpace=wrap;html=1;" parent="1" vertex="1">
          <mxGeometry x="773" y="1524" width="114" height="21" as="geometry" />
        </mxCell>
        <mxCell id="eYdm5l7QzkZv_fn5kE8N-43" value="" style="rounded=1;whiteSpace=wrap;html=1;" parent="1" vertex="1">
          <mxGeometry x="773" y="1561" width="114" height="21" as="geometry" />
        </mxCell>
        <mxCell id="eYdm5l7QzkZv_fn5kE8N-44" value="" style="rounded=1;whiteSpace=wrap;html=1;" parent="1" vertex="1">
          <mxGeometry x="773" y="1594" width="114" height="21" as="geometry" />
        </mxCell>
        <mxCell id="eYdm5l7QzkZv_fn5kE8N-45" value="" style="rounded=1;whiteSpace=wrap;html=1;" parent="1" vertex="1">
          <mxGeometry x="775" y="1700" width="114" height="21" as="geometry" />
        </mxCell>
        <mxCell id="eYdm5l7QzkZv_fn5kE8N-46" value="Core&amp;nbsp;&lt;span style=&quot;background-color: initial;&quot;&gt;Data&lt;/span&gt;&lt;div style=&quot;font-size: 19px;&quot;&gt;Layer&lt;/div&gt;" style="text;strokeColor=none;fillColor=none;html=1;fontSize=19;fontStyle=1;verticalAlign=middle;align=center;" parent="1" vertex="1">
          <mxGeometry x="758" y="1462" width="150" height="40" as="geometry" />
        </mxCell>
        <mxCell id="eYdm5l7QzkZv_fn5kE8N-47" value="&lt;font style=&quot;font-size: 11px;&quot;&gt;sales&lt;/font&gt;" style="text;strokeColor=none;align=center;fillColor=none;html=1;verticalAlign=middle;whiteSpace=wrap;rounded=0;fontSize=11;" parent="1" vertex="1">
          <mxGeometry x="780" y="1519" width="100" height="30" as="geometry" />
        </mxCell>
        <mxCell id="eYdm5l7QzkZv_fn5kE8N-48" value="customer_type" style="text;strokeColor=none;align=center;fillColor=none;html=1;verticalAlign=middle;whiteSpace=wrap;rounded=0;fontSize=11;" parent="1" vertex="1">
          <mxGeometry x="780" y="1559" width="100" height="30" as="geometry" />
        </mxCell>
        <mxCell id="eYdm5l7QzkZv_fn5kE8N-49" value="&lt;font style=&quot;font-size: 11px;&quot;&gt;gender&lt;/font&gt;" style="text;strokeColor=none;align=center;fillColor=none;html=1;verticalAlign=middle;whiteSpace=wrap;rounded=0;fontSize=11;" parent="1" vertex="1">
          <mxGeometry x="780" y="1597" width="100" height="15" as="geometry" />
        </mxCell>
        <mxCell id="eYdm5l7QzkZv_fn5kE8N-50" value="&lt;font style=&quot;font-size: 11px;&quot;&gt;payment&lt;/font&gt;" style="text;strokeColor=none;align=center;fillColor=none;html=1;verticalAlign=middle;whiteSpace=wrap;rounded=0;fontSize=11;" parent="1" vertex="1">
          <mxGeometry x="781.5" y="1703" width="97" height="16" as="geometry" />
        </mxCell>
        <mxCell id="eYdm5l7QzkZv_fn5kE8N-51" value="" style="rounded=1;whiteSpace=wrap;html=1;" parent="1" vertex="1">
          <mxGeometry x="773" y="1625" width="114" height="21" as="geometry" />
        </mxCell>
        <mxCell id="eYdm5l7QzkZv_fn5kE8N-52" value="&lt;font style=&quot;font-size: 11px;&quot;&gt;product&lt;/font&gt;" style="text;strokeColor=none;align=center;fillColor=none;html=1;verticalAlign=middle;whiteSpace=wrap;rounded=0;fontSize=11;" parent="1" vertex="1">
          <mxGeometry x="780" y="1629" width="100" height="15" as="geometry" />
        </mxCell>
        <mxCell id="eYdm5l7QzkZv_fn5kE8N-55" value="" style="endArrow=classic;html=1;rounded=0;entryX=0;entryY=0.25;entryDx=0;entryDy=0;exitX=1;exitY=0.25;exitDx=0;exitDy=0;" parent="1" source="eYdm5l7QzkZv_fn5kE8N-28" target="eYdm5l7QzkZv_fn5kE8N-42" edge="1">
          <mxGeometry width="50" height="50" relative="1" as="geometry">
            <mxPoint x="573" y="1655" as="sourcePoint" />
            <mxPoint x="623" y="1605" as="targetPoint" />
          </mxGeometry>
        </mxCell>
        <mxCell id="eYdm5l7QzkZv_fn5kE8N-56" value="" style="endArrow=classic;html=1;rounded=0;entryX=0;entryY=0.5;entryDx=0;entryDy=0;exitX=1;exitY=0.75;exitDx=0;exitDy=0;" parent="1" target="eYdm5l7QzkZv_fn5kE8N-43" edge="1">
          <mxGeometry width="50" height="50" relative="1" as="geometry">
            <mxPoint x="687" y="1547" as="sourcePoint" />
            <mxPoint x="773" y="1558.25" as="targetPoint" />
          </mxGeometry>
        </mxCell>
        <mxCell id="p54MfCo67pkxVyZ0xUuG-2" value="&lt;span style=&quot;font-size: 20px;&quot;&gt;.csv файл&lt;/span&gt;" style="text;strokeColor=none;align=center;fillColor=none;html=1;verticalAlign=middle;whiteSpace=wrap;rounded=0;" parent="1" vertex="1">
          <mxGeometry x="353" y="1462" width="110" height="30" as="geometry" />
        </mxCell>
        <mxCell id="p54MfCo67pkxVyZ0xUuG-6" value="Source&amp;nbsp;&lt;div&gt;Systems&lt;/div&gt;" style="text;strokeColor=none;fillColor=none;html=1;fontSize=19;fontStyle=1;verticalAlign=middle;align=center;" parent="1" vertex="1">
          <mxGeometry x="337" y="1380" width="150" height="60" as="geometry" />
        </mxCell>
        <mxCell id="p54MfCo67pkxVyZ0xUuG-11" value="" style="rounded=1;whiteSpace=wrap;html=1;strokeColor=#040307;strokeWidth=3;" parent="1" vertex="1">
          <mxGeometry x="943" y="1426.5" width="180" height="360" as="geometry" />
        </mxCell>
        <mxCell id="p54MfCo67pkxVyZ0xUuG-12" value="" style="rounded=1;whiteSpace=wrap;html=1;" parent="1" vertex="1">
          <mxGeometry x="973" y="1525.5" width="114" height="34.5" as="geometry" />
        </mxCell>
        <mxCell id="p54MfCo67pkxVyZ0xUuG-14" value="" style="rounded=1;whiteSpace=wrap;html=1;" parent="1" vertex="1">
          <mxGeometry x="973" y="1580.5" width="114" height="21" as="geometry" />
        </mxCell>
        <mxCell id="p54MfCo67pkxVyZ0xUuG-16" value="&lt;span style=&quot;background-color: initial;&quot;&gt;Data Mart&lt;/span&gt;&lt;div style=&quot;font-size: 19px;&quot;&gt;Layer&lt;/div&gt;" style="text;strokeColor=none;fillColor=none;html=1;fontSize=19;fontStyle=1;verticalAlign=middle;align=center;" parent="1" vertex="1">
          <mxGeometry x="958" y="1463.5" width="150" height="40" as="geometry" />
        </mxCell>
        <mxCell id="p54MfCo67pkxVyZ0xUuG-17" value="&lt;font style=&quot;font-size: 11px;&quot;&gt;sales_fact&lt;/font&gt;" style="text;strokeColor=none;align=center;fillColor=none;html=1;verticalAlign=middle;whiteSpace=wrap;rounded=0;fontSize=11;" parent="1" vertex="1">
          <mxGeometry x="980" y="1528.5" width="100" height="21.5" as="geometry" />
        </mxCell>
        <mxCell id="p54MfCo67pkxVyZ0xUuG-19" value="customer_dim" style="text;strokeColor=none;align=center;fillColor=none;html=1;verticalAlign=middle;whiteSpace=wrap;rounded=0;fontSize=11;" parent="1" vertex="1">
          <mxGeometry x="983" y="1582.5" width="100" height="15" as="geometry" />
        </mxCell>
        <mxCell id="p54MfCo67pkxVyZ0xUuG-21" value="" style="rounded=1;whiteSpace=wrap;html=1;" parent="1" vertex="1">
          <mxGeometry x="973" y="1611.5" width="114" height="21" as="geometry" />
        </mxCell>
        <mxCell id="p54MfCo67pkxVyZ0xUuG-22" value="&lt;font style=&quot;font-size: 11px;&quot;&gt;gender_dim&lt;/font&gt;" style="text;strokeColor=none;align=center;fillColor=none;html=1;verticalAlign=middle;whiteSpace=wrap;rounded=0;fontSize=11;" parent="1" vertex="1">
          <mxGeometry x="983" y="1613.5" width="100" height="15" as="geometry" />
        </mxCell>
        <mxCell id="p54MfCo67pkxVyZ0xUuG-23" value="" style="rounded=1;whiteSpace=wrap;html=1;" parent="1" vertex="1">
          <mxGeometry x="973" y="1736.5" width="114" height="21" as="geometry" />
        </mxCell>
        <mxCell id="p54MfCo67pkxVyZ0xUuG-24" value="&lt;font style=&quot;font-size: 11px;&quot;&gt;month_dim&lt;/font&gt;" style="text;strokeColor=none;align=center;fillColor=none;html=1;verticalAlign=middle;whiteSpace=wrap;rounded=0;fontSize=11;" parent="1" vertex="1">
          <mxGeometry x="983" y="1738.5" width="100" height="15" as="geometry" />
        </mxCell>
        <mxCell id="p54MfCo67pkxVyZ0xUuG-27" value="DWH" style="text;strokeColor=none;fillColor=none;html=1;fontSize=19;fontStyle=1;verticalAlign=middle;align=center;" parent="1" vertex="1">
          <mxGeometry x="758" y="1381" width="150" height="40" as="geometry" />
        </mxCell>
        <mxCell id="EXCTl2cIy2LbLet_FyKj-1" value="&lt;font style=&quot;font-size: 11px;&quot;&gt;store&lt;/font&gt;" style="text;strokeColor=none;align=center;fillColor=none;html=1;verticalAlign=middle;whiteSpace=wrap;rounded=0;fontSize=11;" parent="1" vertex="1">
          <mxGeometry x="781.5" y="1665" width="97" height="16" as="geometry" />
        </mxCell>
        <mxCell id="EXCTl2cIy2LbLet_FyKj-7" value="" style="endArrow=classic;html=1;rounded=0;entryX=0;entryY=0.5;entryDx=0;entryDy=0;exitX=1;exitY=0.75;exitDx=0;exitDy=0;" parent="1" source="eYdm5l7QzkZv_fn5kE8N-43" target="p54MfCo67pkxVyZ0xUuG-14" edge="1">
          <mxGeometry width="50" height="50" relative="1" as="geometry">
            <mxPoint x="873" y="1631" as="sourcePoint" />
            <mxPoint x="923" y="1581" as="targetPoint" />
          </mxGeometry>
        </mxCell>
        <mxCell id="EXCTl2cIy2LbLet_FyKj-10" value="" style="endArrow=classic;html=1;rounded=0;entryX=0;entryY=0.25;entryDx=0;entryDy=0;exitX=1;exitY=0.5;exitDx=0;exitDy=0;" parent="1" source="eYdm5l7QzkZv_fn5kE8N-42" target="p54MfCo67pkxVyZ0xUuG-12" edge="1">
          <mxGeometry width="50" height="50" relative="1" as="geometry">
            <mxPoint x="873" y="1631" as="sourcePoint" />
            <mxPoint x="923" y="1581" as="targetPoint" />
          </mxGeometry>
        </mxCell>
        <mxCell id="EXCTl2cIy2LbLet_FyKj-11" value="" style="endArrow=classic;html=1;rounded=0;entryX=0;entryY=0.5;entryDx=0;entryDy=0;exitX=1;exitY=0.75;exitDx=0;exitDy=0;" parent="1" target="p54MfCo67pkxVyZ0xUuG-21" edge="1" source="eYdm5l7QzkZv_fn5kE8N-44">
          <mxGeometry width="50" height="50" relative="1" as="geometry">
            <mxPoint x="887" y="1634" as="sourcePoint" />
            <mxPoint x="973" y="1635" as="targetPoint" />
          </mxGeometry>
        </mxCell>
        <mxCell id="nKu2Fy8h8VYWSQXLU81--2" value="" style="rounded=1;whiteSpace=wrap;html=1;" vertex="1" parent="1">
          <mxGeometry x="973" y="1675" width="114" height="21" as="geometry" />
        </mxCell>
        <mxCell id="nKu2Fy8h8VYWSQXLU81--3" value="store_dim" style="text;strokeColor=none;align=center;fillColor=none;html=1;verticalAlign=middle;whiteSpace=wrap;rounded=0;fontSize=11;" vertex="1" parent="1">
          <mxGeometry x="983" y="1677" width="100" height="15" as="geometry" />
        </mxCell>
        <mxCell id="nKu2Fy8h8VYWSQXLU81--4" value="" style="rounded=1;whiteSpace=wrap;html=1;" vertex="1" parent="1">
          <mxGeometry x="973" y="1643" width="114" height="21" as="geometry" />
        </mxCell>
        <mxCell id="nKu2Fy8h8VYWSQXLU81--5" value="&lt;font style=&quot;font-size: 11px;&quot;&gt;product_dim&lt;/font&gt;" style="text;strokeColor=none;align=center;fillColor=none;html=1;verticalAlign=middle;whiteSpace=wrap;rounded=0;fontSize=11;" vertex="1" parent="1">
          <mxGeometry x="983" y="1645" width="100" height="15" as="geometry" />
        </mxCell>
        <mxCell id="nKu2Fy8h8VYWSQXLU81--6" value="" style="rounded=1;whiteSpace=wrap;html=1;" vertex="1" parent="1">
          <mxGeometry x="1700" y="2020" width="114" height="21" as="geometry" />
        </mxCell>
        <mxCell id="nKu2Fy8h8VYWSQXLU81--7" value="&lt;font style=&quot;font-size: 11px;&quot;&gt;payment_dim&lt;/font&gt;" style="text;strokeColor=none;align=center;fillColor=none;html=1;verticalAlign=middle;whiteSpace=wrap;rounded=0;fontSize=11;" vertex="1" parent="1">
          <mxGeometry x="1706.5" y="2023" width="97" height="16" as="geometry" />
        </mxCell>
        <mxCell id="nKu2Fy8h8VYWSQXLU81--8" value="" style="rounded=1;whiteSpace=wrap;html=1;" vertex="1" parent="1">
          <mxGeometry x="973" y="1703" width="114" height="21" as="geometry" />
        </mxCell>
        <mxCell id="nKu2Fy8h8VYWSQXLU81--9" value="&lt;font style=&quot;font-size: 11px;&quot;&gt;payment&lt;/font&gt;" style="text;strokeColor=none;align=center;fillColor=none;html=1;verticalAlign=middle;whiteSpace=wrap;rounded=0;fontSize=11;" vertex="1" parent="1">
          <mxGeometry x="979.5" y="1706" width="97" height="16" as="geometry" />
        </mxCell>
        <mxCell id="nKu2Fy8h8VYWSQXLU81--10" value="" style="endArrow=classic;html=1;rounded=0;entryX=0;entryY=0.25;entryDx=0;entryDy=0;exitX=1;exitY=0.75;exitDx=0;exitDy=0;" edge="1" parent="1" target="nKu2Fy8h8VYWSQXLU81--4">
          <mxGeometry width="50" height="50" relative="1" as="geometry">
            <mxPoint x="889" y="1634" as="sourcePoint" />
            <mxPoint x="975" y="1646" as="targetPoint" />
          </mxGeometry>
        </mxCell>
        <mxCell id="nKu2Fy8h8VYWSQXLU81--11" value="" style="endArrow=classic;html=1;rounded=0;entryX=-0.018;entryY=0.503;entryDx=0;entryDy=0;exitX=1;exitY=0.75;exitDx=0;exitDy=0;entryPerimeter=0;" edge="1" parent="1" source="EXCTl2cIy2LbLet_FyKj-3" target="nKu2Fy8h8VYWSQXLU81--2">
          <mxGeometry width="50" height="50" relative="1" as="geometry">
            <mxPoint x="886.5" y="1668.5" as="sourcePoint" />
            <mxPoint x="970.5" y="1682.5" as="targetPoint" />
          </mxGeometry>
        </mxCell>
        <mxCell id="nKu2Fy8h8VYWSQXLU81--13" value="" style="endArrow=classic;html=1;rounded=0;entryX=0;entryY=0.5;entryDx=0;entryDy=0;exitX=1;exitY=0.75;exitDx=0;exitDy=0;" edge="1" parent="1" target="nKu2Fy8h8VYWSQXLU81--8">
          <mxGeometry width="50" height="50" relative="1" as="geometry">
            <mxPoint x="889" y="1710" as="sourcePoint" />
            <mxPoint x="973.5" y="1727.5" as="targetPoint" />
          </mxGeometry>
        </mxCell>
        <mxCell id="nKu2Fy8h8VYWSQXLU81--14" value="" style="endArrow=classic;html=1;rounded=0;entryX=0;entryY=0.5;entryDx=0;entryDy=0;exitX=1;exitY=0.5;exitDx=0;exitDy=0;" edge="1" parent="1">
          <mxGeometry width="50" height="50" relative="1" as="geometry">
            <mxPoint x="687" y="1547" as="sourcePoint" />
            <mxPoint x="773" y="1606.5" as="targetPoint" />
          </mxGeometry>
        </mxCell>
        <mxCell id="nKu2Fy8h8VYWSQXLU81--15" value="" style="endArrow=classic;html=1;rounded=0;entryX=0;entryY=0.5;entryDx=0;entryDy=0;exitX=1;exitY=0.5;exitDx=0;exitDy=0;" edge="1" parent="1" target="eYdm5l7QzkZv_fn5kE8N-51">
          <mxGeometry width="50" height="50" relative="1" as="geometry">
            <mxPoint x="687" y="1549" as="sourcePoint" />
            <mxPoint x="773" y="1608.5" as="targetPoint" />
          </mxGeometry>
        </mxCell>
        <mxCell id="nKu2Fy8h8VYWSQXLU81--16" value="" style="endArrow=classic;html=1;rounded=0;entryX=0;entryY=0.5;entryDx=0;entryDy=0;exitX=1;exitY=0.5;exitDx=0;exitDy=0;" edge="1" parent="1" target="EXCTl2cIy2LbLet_FyKj-3">
          <mxGeometry width="50" height="50" relative="1" as="geometry">
            <mxPoint x="687" y="1549" as="sourcePoint" />
            <mxPoint x="773" y="1636" as="targetPoint" />
          </mxGeometry>
        </mxCell>
        <mxCell id="nKu2Fy8h8VYWSQXLU81--17" value="" style="endArrow=classic;html=1;rounded=0;entryX=0.167;entryY=0.792;entryDx=0;entryDy=0;exitX=1;exitY=0.5;exitDx=0;exitDy=0;entryPerimeter=0;" edge="1" parent="1" target="eYdm5l7QzkZv_fn5kE8N-41">
          <mxGeometry width="50" height="50" relative="1" as="geometry">
            <mxPoint x="687" y="1549" as="sourcePoint" />
            <mxPoint x="773" y="1672" as="targetPoint" />
          </mxGeometry>
        </mxCell>
      </root>
    </mxGraphModel>
  </diagram>
</mxfile>
